<?xml version="1.0" standalone="no"?>
<!DOCTYPE svg PUBLIC "-//W3C//DTD SVG 20010904//EN"
 "http://www.w3.org/TR/2001/REC-SVG-20010904/DTD/svg10.dtd">
<svg version="1.0" xmlns="http://www.w3.org/2000/svg"
 width="200.000000pt" height="200.000000pt" viewBox="0 0 200.000000 200.000000"
 preserveAspectRatio="xMidYMid meet">

<g transform="translate(0.000000,200.000000) scale(0.100000,-0.100000)"
fill="#000000" stroke="none">
<path d="M973 1890 c-13 -5 -23 -12 -23 -15 0 -4 5 -3 12 1 7 4 8 3 4 -4 -4
-6 -14 -8 -23 -5 -12 5 -14 3 -8 -7 5 -8 4 -11 -3 -6 -11 6 -61 -19 -157 -78
-28 -17 -76 -44 -107 -61 -31 -16 -54 -33 -52 -37 2 -4 25 -17 50 -30 26 -12
49 -28 51 -35 3 -7 12 -13 21 -13 16 0 242 -131 242 -140 0 -4 -79 -50 -244
-143 -22 -12 -46 -28 -54 -34 -7 -7 -18 -13 -24 -13 -5 0 -21 -9 -34 -19 l-24
-19 25 -16 c13 -9 27 -16 31 -16 3 0 47 -24 98 -53 50 -30 124 -73 164 -96
l73 -43 194 111 c107 61 198 111 203 111 4 0 39 -18 77 -41 153 -89 297 -168
308 -169 4 0 7 98 7 218 l0 217 -43 26 c-23 15 -112 66 -197 114 -85 48 -227
128 -315 178 -88 50 -172 99 -187 109 -29 20 -33 21 -65 8z"/>
<path d="M575 753 c-16 -12 -16 -14 -3 -10 16 6 17 -10 20 -185 3 -183 2 -191
-17 -199 -11 -4 -14 -8 -6 -8 8 -1 19 -8 25 -17 11 -14 15 -14 47 5 18 11 44
25 55 30 12 5 23 14 25 20 3 7 14 8 34 2 17 -5 24 -10 16 -10 -7 -1 -11 -7 -7
-16 3 -8 1 -15 -4 -15 -6 0 -10 -5 -10 -11 0 -6 -7 -17 -15 -25 -8 -9 -15 -11
-15 -6 0 13 -72 24 -84 12 -12 -12 38 -32 59 -24 8 4 15 1 15 -6 0 -6 -4 -8
-10 -5 -5 3 -10 4 -10 2 0 -5 175 -111 229 -139 19 -9 38 -15 44 -11 6 4 7 1
2 -7 -6 -10 -4 -12 8 -7 9 3 16 3 16 -1 -3 -20 5 -19 49 5 110 61 210 118 268
153 33 21 68 40 76 41 30 8 397 224 390 230 -14 14 -351 207 -370 213 -15 5
-75 -24 -216 -105 -140 -79 -200 -108 -209 -101 -21 17 -366 212 -374 212 -4
0 -17 -8 -28 -17z m405 -238 c-7 -9 -15 -13 -17 -11 -7 7 7 26 19 26 6 0 6 -6
-2 -15z m-30 -15 c0 -5 7 -10 15 -10 12 0 15 -29 17 -169 2 -93 0 -167 -4
-164 -5 2 -8 77 -8 165 0 89 -2 159 -5 156 -3 -2 -6 -16 -7 -31 -1 -14 -6 -23
-10 -21 -5 3 -5 10 -2 16 5 7 1 9 -9 5 -10 -3 -17 -2 -17 3 0 6 -3 9 -7 8 -5
-2 -9 2 -11 7 -2 6 7 13 20 17 13 3 17 6 10 7 -15 1 -6 21 9 21 5 0 9 -4 9
-10z m-85 -54 c-13 -9 -15 -15 -6 -20 6 -4 18 -2 26 4 18 15 20 3 2 -14 -15
-15 -76 -26 -82 -15 -3 4 -15 5 -28 3 -20 -4 -20 -4 -2 5 11 4 23 7 27 4 4 -2
22 12 40 31 18 19 35 30 37 25 1 -6 -5 -16 -14 -23z m-58 -141 c-1 -30 -6 -55
-11 -55 -6 0 -6 -4 1 -11 8 -8 17 -8 31 0 35 19 62 12 99 -24 34 -33 40 -65
12 -65 -8 0 -8 4 1 15 7 9 10 18 6 22 -3 3 -6 2 -6 -4 0 -6 -9 -9 -19 -6 -22
6 -58 42 -52 52 3 3 -4 7 -15 8 -19 3 -19 3 0 -5 19 -8 18 -9 -4 -15 -24 -6
-57 9 -88 40 -7 7 -20 13 -28 13 -8 0 -14 4 -14 9 0 5 8 8 17 7 10 0 18 5 19
12 1 6 2 17 3 23 0 6 8 9 15 6 9 -4 17 2 21 14 10 32 14 22 12 -36z m71 -113
c2 -7 -2 -10 -12 -6 -9 3 -16 11 -16 16 0 13 23 5 28 -10z"/>
<path d="M773 299 c-7 -9 -9 -20 -3 -29 12 -19 22 -7 18 21 -2 19 -5 20 -15 8z"/>
<path d="M468 692 c-26 -14 -46 -28 -44 -30 6 -5 96 41 96 50 0 10 4 11 -52
-20z"/>
<path d="M535 689 c-4 -6 -5 -12 -2 -15 2 -3 7 2 10 11 7 17 1 20 -8 4z"/>
<path d="M386 645 c-11 -8 -15 -15 -9 -15 6 0 16 7 23 15 16 19 11 19 -14 0z"/>
<path d="M312 602 c-24 -13 -41 -26 -39 -28 3 -3 22 5 43 17 47 27 48 28 43
32 -2 2 -23 -7 -47 -21z"/>
<path d="M232 561 c-11 -6 -10 -10 0 -19 11 -8 14 -7 15 9 2 22 2 21 -15 10z"/>
<path d="M388 454 c24 -14 46 -23 49 -20 4 3 1 6 -6 6 -7 0 -9 5 -5 12 4 7 3
8 -4 4 -7 -4 -22 0 -34 8 -12 9 -27 16 -33 16 -5 0 9 -12 33 -26z"/>
<path d="M460 450 c-9 -6 -10 -10 -3 -10 6 0 15 5 18 10 8 12 4 12 -15 0z"/>
<path d="M463 422 c-9 -5 -6 -12 10 -21 19 -13 21 -12 10 1 -7 8 -10 18 -6 21
9 9 1 8 -14 -1z"/>
<path d="M510 386 c0 -2 7 -7 16 -10 8 -3 12 -2 9 4 -6 10 -25 14 -25 6z"/>
<path d="M688 353 c-10 -2 -18 -9 -18 -14 0 -14 26 -11 40 6 13 15 9 16 -22 8z"/>
</g>
</svg>
